<svg width="450" height="145" viewBox="0 0 450 145" fill="none" xmlns="http://www.w3.org/2000/svg">
<path fill-rule="evenodd" clip-rule="evenodd" d="M22.1516 0.326952C9.85986 1.74454 1.74213 8.93151 0.924061 19.1226C0.0711965 29.7351 4.20858 35.5239 22.8211 49.7658C40.689 63.4377 44.4991 68.5003 43.7685 77.5961C43.2861 83.6111 40.9335 86.8677 35.0452 89.6738C27.2735 93.3779 13.3174 91.3486 4.33176 85.2084C2.36932 83.8675 0.518785 82.7703 0.219765 82.7703C-1.27251 82.7703 5.2495 92.5653 7.2975 93.3983C12.9986 95.7199 19.1765 96.5656 27.8274 96.2063C36.1162 95.8626 37.758 95.4713 43.5851 92.4517C52.5764 87.793 55.3757 83.5471 55.9916 73.6308C56.396 67.1254 56.1675 65.7253 53.9323 61.0065C50.8039 54.405 44.4079 48.2841 29.3798 37.5085C16.2098 28.0651 14.1938 26.0979 12.5097 21.0393C10.3676 14.6038 13.6503 8.22952 20.2672 5.97401C24.9321 4.38456 36.0325 5.34094 41.3923 7.7955C43.8484 8.91986 45.8569 9.53642 45.8551 9.16648C45.8457 7.37508 41.854 2.03971 39.9819 1.31538C36.8384 0.100726 28.2468 -0.376015 22.1516 0.326952ZM106.357 5.15743C89.3201 10.7336 77.8295 28.6865 77.8295 49.7299C77.8295 69.5877 85.9895 84.4967 101.07 92.1924C107.515 95.482 109.036 95.8558 117.361 96.2015C131.074 96.7695 140.198 93.1634 148.65 83.8325C156.896 74.7299 160.995 62.9115 160.807 48.7871C160.569 30.8041 151.704 14.6776 138.149 7.56636C129.023 2.77958 116.519 1.83193 106.357 5.15743ZM395.479 47.6336C385.813 72.0316 377.61 92.7934 377.248 93.7712C376.695 95.2664 377.004 95.4965 379.204 95.2276C381.601 94.9334 382.218 93.8838 386.701 82.4926C389.387 75.6649 392.003 69.647 392.515 69.1188C393.077 68.5381 399.913 68.2643 409.803 68.4255L426.161 68.6915L431.419 81.7994L436.677 94.9072L443.552 95.1946C448.888 95.4179 450.32 95.2004 449.943 94.2236C443.651 77.8893 414.15 4.41951 413.692 3.94083C413.34 3.57381 405.143 23.2356 395.479 47.6336ZM190.432 4.66128C190.044 5.07684 189.727 25.7144 189.727 50.5202V95.6228L207.828 95.1451C223.553 94.7295 226.726 94.3751 232.004 92.4439C255.002 84.0296 254.317 54.537 230.918 45.7276L225.477 43.6789L229.655 40.9428C234.905 37.5056 237.683 32.1586 237.683 25.492C237.683 19.141 235.976 15.0446 231.724 11.189C226.604 6.54784 220.392 4.9846 204.772 4.40786C197.273 4.13017 190.82 4.24474 190.432 4.66128ZM279.057 49.758V95.3927H285.169H291.281V71.1189V46.8452H315.259H339.237V71.1189V95.3927H345.349H351.461V49.758V4.12337H345.349H339.237V23.0569V41.9904H315.259H291.281V23.0569V4.12337H285.169H279.057V49.758ZM126.821 9.12959C135.148 12.0551 141.855 19.9576 145.646 31.31C148.577 40.0883 148.646 58.9597 145.781 67.9614C139.885 86.4832 126.716 95.0752 111.459 90.3544C106.601 88.8514 99.5723 82.2654 96.396 76.2387C89.1339 62.4619 88.8255 38.4183 95.7321 24.4395C102.083 11.5851 115.292 5.08073 126.821 9.12959ZM219.913 12.1696C224.218 15.1631 225.576 18.4886 225.576 26.0396C225.576 33.7111 223.078 39.7592 218.841 42.3439L215.944 44.111L221.414 46.7821C227.596 49.8007 232.239 54.6904 233.921 59.951C234.557 61.9415 234.908 66.6215 234.715 70.5597C234.052 84.1064 227.508 89.6864 212.008 89.9213L203.361 90.0524L203.116 50.0008L202.87 9.94907H209.794C215.45 9.94907 217.303 10.3559 219.913 12.1696ZM416.783 44.8945C420.678 54.7137 423.865 62.8833 423.865 63.0493C423.865 63.2154 417.306 63.3513 409.29 63.3513C401.274 63.3513 394.715 63.1125 394.715 62.8212C394.715 62.5289 397.509 55.2303 400.924 46.6005C404.339 37.9707 407.524 29.8477 408.003 28.5476C408.481 27.2485 409.06 26.3785 409.287 26.6145C409.516 26.8504 412.889 35.0763 416.783 44.8945ZM214.79 133.808C212.9 138.969 211.354 143.579 211.354 144.052C211.354 145.967 214.282 144.746 215.115 142.484C215.886 140.39 216.592 140.056 220.246 140.056C223.98 140.056 224.552 140.344 225.072 142.484C225.442 144.002 226.328 144.911 227.441 144.911C229.819 144.911 229.662 143.943 225.626 133.745C222.972 127.037 221.71 124.939 220.197 124.716C218.499 124.466 217.749 125.726 214.79 133.808ZM166.219 135.202C166.219 144.263 166.344 144.911 168.1 144.911C169.667 144.911 169.98 144.263 169.98 141.027C169.98 137.8 170.296 137.144 171.848 137.144C172.984 137.144 174.688 138.663 176.204 141.027C177.631 143.254 179.442 144.911 180.449 144.911C182.647 144.911 182.641 144.815 180.166 140.485C178.37 137.341 178.302 136.817 179.591 136.072C181.875 134.752 182.508 130.485 180.815 127.817C179.492 125.732 178.662 125.492 172.779 125.492H166.219V135.202ZM190.868 134.959L191.137 144.426L197.955 144.711C204.284 144.976 204.772 144.854 204.772 143.012C204.772 141.254 204.182 141.027 199.6 141.027C194.71 141.027 194.428 140.895 194.428 138.6C194.428 136.371 194.773 136.173 198.66 136.173C201.794 136.173 202.891 135.795 202.891 134.716C202.891 133.637 201.794 133.26 198.66 133.26C194.773 133.26 194.428 133.062 194.428 130.832C194.428 128.537 194.71 128.405 199.6 128.405C203.57 128.405 204.772 128.067 204.772 126.949C204.772 125.782 203.358 125.492 197.686 125.492H190.599L190.868 134.959ZM237.683 135.246V144.999L244.02 144.713C249.176 144.479 250.416 144.109 250.671 142.726C250.936 141.288 250.251 141.027 246.214 141.027H241.444V133.26C241.444 126.14 241.287 125.492 239.563 125.492C237.808 125.492 237.683 126.14 237.683 135.246ZM254.608 126.949C254.608 127.915 255.545 128.405 257.392 128.405H260.174L260.448 136.405C260.676 143.118 260.985 144.457 262.366 144.729C263.83 145.018 264.012 144.133 264.012 136.729V128.405H267.303C269.601 128.405 270.594 127.966 270.594 126.949C270.594 125.768 269.079 125.492 262.601 125.492C256.123 125.492 254.608 125.768 254.608 126.949ZM278.191 127.599C278.83 128.844 280.344 131.492 281.556 133.483C282.918 135.724 283.758 138.593 283.758 141.008C283.758 144.263 284.07 144.911 285.639 144.911C287.221 144.911 287.523 144.257 287.541 140.785C287.556 137.793 288.45 135.189 290.792 131.318C293.324 127.131 293.715 125.908 292.606 125.654C290.707 125.221 288.906 126.889 287.506 130.379C286.871 131.963 286.084 133.259 285.76 133.257C285.435 133.256 284.322 131.617 283.288 129.616C282.087 127.293 280.616 125.862 279.218 125.657C277.199 125.362 277.119 125.513 278.191 127.599ZM177.33 131.075C177.072 133.394 176.568 133.785 173.506 134.046C170.136 134.335 169.98 134.216 169.98 131.376C169.98 128.549 170.165 128.405 173.804 128.405C177.421 128.405 177.612 128.55 177.33 131.075ZM222.117 134.959C222.672 136.831 222.419 137.144 220.35 137.144C217.663 137.144 217.483 136.56 218.942 132.595C220.009 129.699 220.715 130.225 222.117 134.959Z" fill="black"/>
</svg>
